<svg width="100%" viewBox="0 0 680 240" role="img" xmlns="http://www.w3.org/2000/svg">
  <title>Arabic Name Generator</title>
  <desc>Project banner for Arabic Name Generator - a character-level MLP that generates Arabic names</desc>

  <rect width="680" height="240" fill="#0d1424" rx="12"/>

  <text x="30" y="65" fill="rgba(255,255,255,0.04)" font-size="72" font-family="serif">ع</text>
  <text x="100" y="200" fill="rgba(255,255,255,0.03)" font-size="85" font-family="serif">م</text>
  <text x="590" y="55" fill="rgba(255,255,255,0.04)" font-size="58" font-family="serif">ر</text>
  <text x="490" y="215" fill="rgba(255,255,255,0.03)" font-size="75" font-family="serif">ا</text>
  <text x="310" y="28" fill="rgba(255,255,255,0.03)" font-size="48" font-family="serif">ن</text>
  <text x="635" y="155" fill="rgba(255,255,255,0.04)" font-size="52" font-family="serif">ي</text>
  <text x="215" y="228" fill="rgba(255,255,255,0.03)" font-size="68" font-family="serif">ه</text>
  <text x="455" y="105" fill="rgba(255,255,255,0.04)" font-size="42" font-family="serif">د</text>

  <text x="52" y="88" fill="#ffffff" font-size="26" font-weight="500" font-family="sans-serif" letter-spacing="0.5">Arabic Name Generator</text>
  <text x="54" y="118" fill="#1D9E75" font-size="19" font-family="serif">مولّد الأسماء العربية</text>

  <rect x="53" y="133" width="138" height="22" rx="4" fill="rgba(29,158,117,0.12)" stroke="rgba(29,158,117,0.25)" stroke-width="0.5"/>
  <text x="122" y="148" fill="#5DCAA5" font-size="11" font-family="sans-serif" text-anchor="middle">Character-level MLP</text>

  <rect x="199" y="133" width="108" height="22" rx="4" fill="rgba(29,158,117,0.12)" stroke="rgba(29,158,117,0.25)" stroke-width="0.5"/>
  <text x="253" y="148" fill="#5DCAA5" font-size="11" font-family="sans-serif" text-anchor="middle">Zero to Hero</text>

  <rect x="315" y="133" width="118" height="22" rx="4" fill="rgba(29,158,117,0.12)" stroke="rgba(29,158,117,0.25)" stroke-width="0.5"/>
  <text x="374" y="148" fill="#5DCAA5" font-size="11" font-family="sans-serif" text-anchor="middle">Built from scratch</text>

  <line x1="52" y1="175" x2="440" y2="175" stroke="rgba(255,255,255,0.07)" stroke-width="0.5"/>

  <text x="52" y="196" fill="rgba(255,255,255,0.35)" font-size="10" font-family="sans-serif">sample output →</text>
  <text x="148" y="196" fill="#9FE1CB" font-size="14" font-family="serif">عامر  •  فاطمة  •  خالد  •  آمنة</text>

  <text x="52" y="222" fill="rgba(255,255,255,0.18)" font-size="10" font-family="sans-serif">github.com/aboudrari/arabic-name-generator</text>

  <line x1="500" y1="85" x2="548" y2="68" stroke="rgba(29,158,117,0.18)" stroke-width="0.5"/>
  <line x1="500" y1="85" x2="548" y2="105" stroke="rgba(29,158,117,0.18)" stroke-width="0.5"/>
  <line x1="500" y1="118" x2="548" y2="68" stroke="rgba(29,158,117,0.18)" stroke-width="0.5"/>
  <line x1="500" y1="118" x2="548" y2="105" stroke="rgba(29,158,117,0.18)" stroke-width="0.5"/>
  <line x1="500" y1="118" x2="548" y2="140" stroke="rgba(29,158,117,0.18)" stroke-width="0.5"/>
  <line x1="500" y1="150" x2="548" y2="105" stroke="rgba(29,158,117,0.18)" stroke-width="0.5"/>
  <line x1="500" y1="150" x2="548" y2="140" stroke="rgba(29,158,117,0.18)" stroke-width="0.5"/>
  <line x1="548" y1="68" x2="600" y2="90" stroke="rgba(29,158,117,0.18)" stroke-width="0.5"/>
  <line x1="548" y1="105" x2="600" y2="90" stroke="rgba(29,158,117,0.18)" stroke-width="0.5"/>
  <line x1="548" y1="140" x2="600" y2="90" stroke="rgba(29,158,117,0.18)" stroke-width="0.5"/>
  <line x1="548" y1="105" x2="600" y2="128" stroke="rgba(29,158,117,0.18)" stroke-width="0.5"/>
  <line x1="548" y1="140" x2="600" y2="128" stroke="rgba(29,158,117,0.18)" stroke-width="0.5"/>

  <circle cx="500" cy="85" r="4" fill="none" stroke="rgba(29,158,117,0.5)" stroke-width="0.5"/>
  <circle cx="500" cy="118" r="4" fill="none" stroke="rgba(29,158,117,0.5)" stroke-width="0.5"/>
  <circle cx="500" cy="150" r="4" fill="none" stroke="rgba(29,158,117,0.5)" stroke-width="0.5"/>
  <circle cx="548" cy="68" r="4" fill="rgba(29,158,117,0.25)" stroke="#1D9E75" stroke-width="0.5"/>
  <circle cx="548" cy="105" r="4" fill="rgba(29,158,117,0.25)" stroke="#1D9E75" stroke-width="0.5"/>
  <circle cx="548" cy="140" r="4" fill="rgba(29,158,117,0.25)" stroke="#1D9E75" stroke-width="0.5"/>
  <circle cx="600" cy="90" r="7" fill="#1D9E75" stroke="#5DCAA5" stroke-width="0.5"/>
  <circle cx="600" cy="128" r="7" fill="#1D9E75" stroke="#5DCAA5" stroke-width="0.5"/>
  <text x="600" y="94" fill="white" font-size="9" font-family="serif" text-anchor="middle">ع</text>
  <text x="600" y="132" fill="white" font-size="9" font-family="serif" text-anchor="middle">م</text>
  <text x="548" y="158" fill="rgba(255,255,255,0.2)" font-size="9" font-family="sans-serif" text-anchor="middle">MLP</text>
</svg>
